<svg xmlns="http://www.w3.org/2000/svg" xmlns:xlink="http://www.w3.org/1999/xlink" version="1.1" width="112.29" height="9.96" viewBox="0 0 112.29 9.96">
<defs>
<clipPath id="clip_0">
<path transform="matrix(.1,0,0,-.1,0,9.96)" d="M591 0V100H1123V0Z"/>
</clipPath>
</defs>
<path transform="matrix(.1,0,0,-.1,0,9.96)" d="M46.3281 91.3594C40.8594 94.6563 35.375 96.3438 28.0938 96.3438 14.25 96.3438 5.57813 86.5781 5.57813 76.7188 5.57813 72.4375 6.96875 68.25 10.9688 64.0625 15.1406 59.5781 19.5313 58.375 25.4063 56.9844 33.875 54.8906 34.875 54.5938 37.6719 52.1094 39.6563 50.4063 41.8594 47.125 41.8594 42.8438 41.8594 36.2656 36.375 29.6875 27.2969 29.6875 23.2188 29.6875 14.25 30.6875 5.875 37.75L4.39063 29.6875C13.1563 24.2031 21.125 22.8125 27.4063 22.8125 40.5625 22.8125 49.7188 32.875 49.7188 43.8281 49.7188 50.3125 46.6406 55.0938 44.4375 57.4844 39.7656 62.4688 36.4688 63.3594 27.2969 65.6563 21.5313 67.0469 19.9219 67.4531 16.9375 70.0469 16.25 70.6406 13.4531 73.5313 13.4531 77.9063 13.4531 83.7969 18.8281 89.7656 28 89.7656 36.375 89.7656 41.1563 86.4844 44.8438 83.3906L46.3281 91.3594" fill="#ffffff"/>
<path transform="matrix(.1,0,0,-.1,0,9.96)" d="M90.0781 53.7969C102.438 53.7969 113 62.8594 113 74.0313 113 84.6875 103.125 94.1563 89.375 94.1563H64.5625V25H73.4375V53.7969H90.0781ZM87.1875 88.5781C98.1406 88.5781 104.922 82.5 104.922 74.0313 104.922 66.1563 98.6406 59.5781 87.1875 59.5781H73.1406V88.5781H87.1875" fill="#ffffff"/>
<path transform="matrix(.1,0,0,-.1,0,9.96)" d="M148.563 94.1563H139.797L113.797 25H121.156L128.844 45.3281H157.828L165.406 25H174.578L148.563 94.1563ZM155.641 50.9063H130.922L137.406 68.9375C139.5 74.8281 142.594 83.2969 143.281 86.9844H143.391C143.578 85.5781 144.281 83.0938 146.578 76.5156L155.641 50.9063" fill="#ffffff"/>
<path transform="matrix(.1,0,0,-.1,0,9.96)" d="M218.75 57.4844C229.016 60.4688 235.688 67.5469 235.688 75.625 235.688 85.4844 224.828 94.1563 210.578 94.1563H186.563V25H195.141V56.5938H210.875L229.609 25H238.484L218.75 57.4844ZM195.141 62.6719V88.5781H209.484C221.047 88.5781 227.625 82.7031 227.625 75.625 227.625 68.5469 221.25 62.6719 209.484 62.6719H195.141" fill="#ffffff"/>
<path transform="matrix(.1,0,0,-.1,0,9.96)" d="M287.328 91.3594C281.859 94.6563 276.375 96.3438 269.094 96.3438 255.25 96.3438 246.578 86.5781 246.578 76.7188 246.578 72.4375 247.969 68.25 251.969 64.0625 256.141 59.5781 260.531 58.375 266.406 56.9844 274.875 54.8906 275.875 54.5938 278.672 52.1094 280.656 50.4063 282.859 47.125 282.859 42.8438 282.859 36.2656 277.375 29.6875 268.297 29.6875 264.219 29.6875 255.25 30.6875 246.875 37.75L245.391 29.6875C254.156 24.2031 262.125 22.8125 268.406 22.8125 281.563 22.8125 290.719 32.875 290.719 43.8281 290.719 50.3125 287.641 55.0938 285.438 57.4844 280.766 62.4688 277.469 63.3594 268.297 65.6563 262.531 67.0469 260.922 67.4531 257.938 70.0469 257.25 70.6406 254.453 73.5313 254.453 77.9063 254.453 83.7969 259.828 89.7656 269 89.7656 277.375 89.7656 282.156 86.4844 285.844 83.3906L287.328 91.3594" fill="#ffffff"/>
<path transform="matrix(.1,0,0,-.1,0,9.96)" d="M315.234 94.1563H306.359V25H315.234V94.1563" fill="#ffffff"/>
<path transform="matrix(.1,0,0,-.1,0,9.96)" d="M363.359 87.1875H372.234C373.422 87.1875 374.625 87.0781 375.813 87.0781H389.172V93.5625H328.594V87.0781H341.938C343.141 87.0781 344.328 87.1875 345.531 87.1875H354.5V25H363.359V87.1875" fill="#ffffff"/>
<path transform="matrix(.1,0,0,-.1,0,9.96)" d="M458.063 94.1563H449.297L433.859 71.6406C433.359 70.9375 432.859 70.1406 432.156 69.0469L426.078 59.5781C424.188 62.6719 424.188 62.8594 422.484 65.25L402.766 94.1563H392.297L420.891 52.7031V25H429.469V52.6094L458.063 94.1563" fill="#ffffff"/>
<path transform="matrix(.1,0,0,-.1,0,9.96)" d="M548 33.4688C546.5 33.4688 546.313 33.4688 545.516 33.0781 539.234 30.375 533.953 29.9844 530.969 29.9844 516.313 29.9844 505.047 43.3281 505.047 59.5781 505.047 77.0156 517.609 89.1719 530.469 89.1719 534.75 89.1719 540.031 87.2813 542.719 79.7031 540.328 81.2031 537.344 82.2031 534.344 82.2031 524.578 82.2031 515.922 72.5313 515.922 59.5781 515.922 46.625 524.578 36.9531 534.344 36.9531 541.125 36.9531 552.781 42.6406 552.781 61.0781 552.781 69.8438 552.688 95.25 530.563 95.25 513.125 95.25 497.578 79.8125 497.578 59.5781 497.578 39.4531 512.828 23.9063 530.656 23.9063 541.625 23.9063 549.391 29.6875 552.781 33.4688H548ZM534.344 43.0313C528.469 43.0313 523.391 50.1094 523.391 59.5781 523.391 68.9375 528.469 76.125 534.344 76.125 540.234 76.125 545.313 69.0469 545.313 59.5781 545.313 50.2031 540.234 43.0313 534.344 43.0313" fill="#ffffff"/>
<g clip-path="url(#clip_0)">
<path transform="matrix(.1,0,0,-.1,0,9.96)" d="M655.059 48C655.059 32.2969 652.762 20.3711 628.91 20.3711 605.184 20.3711 601.504 31.8359 601.504 48V86.1836C601.504 94.7891 597.844 95.5938 591.531 95.5938V97.8789H621.684V95.5938C615.496 95.5938 611.711 94.7891 611.711 86.1836V48C611.711 36.3086 614.469 24.8477 629.363 24.8477 645.891 24.8477 648.516 34.3594 648.516 48V86.1836C648.516 94.7891 644.738 95.5938 638.547 95.5938V97.8789H665.031V95.5938C658.73 95.5938 655.059 94.7891 655.059 86.1836V48" fill="#ffffff"/>
<path transform="matrix(.1,0,0,-.1,0,9.96)" d="M718.469 23.4688C712.848 21.3984 706.43 20.3711 697.945 20.3711 675.016 20.3711 664.004 37.7969 664.004 62.2188 664.004 83.4375 670.875 99.0273 695.418 99.0273 704.594 99.0273 712.387 97.1914 717.441 95.8242L718.469 77.8164H715.605C714.105 84.2383 709.531 94.5586 695.301 94.5586 676.852 94.5586 675.352 74.9492 675.352 63.1406 675.352 48.3477 678.57 25.5313 703.68 25.5313 711.359 25.5313 715.492 27.25 718.469 28.3984V23.4688" fill="#ffffff"/>
<path transform="matrix(.1,0,0,-.1,0,9.96)" d="M780.059 81.3711C779.02 87.4414 774.426 94.5586 762.164 94.5586 754.477 94.5586 747.711 89.6289 747.711 82.0586 747.711 71.8516 761.367 68.5273 771.34 62.6797 780.402 57.4063 786.465 52.707 786.465 41.8086 786.465 27.25 773.848 20.3711 758.145 20.3711 750.355 20.3711 741.301 22.0898 738.43 22.5508L737.621 38.7188H740.496C741.41 32.6406 746.797 25.5313 759.07 25.5313 769.16 25.5313 775.695 32.0664 775.695 39.9844 775.695 52.3594 756.66 56.1445 745.992 64.2891 740.957 68.1875 738.543 72.3086 738.543 79.6563 738.543 93.4102 749.902 99.0273 764.336 99.0273 772.031 99.0273 776.953 98.1094 782.121 97.082L782.922 81.3711H780.059" fill="#ffffff"/>
<path transform="matrix(.1,0,0,-.1,0,9.96)" d="M818.234 44.1641C813.438 44.0586 800.379 43.1406 800.379 33.6523 800.379 28.3516 803.859 24.7813 807.328 24.7813 813.957 24.7813 818.234 31.2109 818.234 38.1445V44.1641ZM833.332 21.418C832.109 21.1094 829.555 20.5 825.895 20.5 819.973 20.5 818.234 23.5547 818.234 27.9414H818.023C814.879 23.3555 810.488 20.5 803.539 20.5 796.508 20.5 791.309 25.3984 791.309 32.0273 791.309 46.8164 810.488 46.8164 818.234 47.5352V51.4023C818.234 58.5508 818.129 66.0898 809.566 66.0898 803.242 66.0898 802.426 63.4375 802.426 60.1719 802.426 55.9922 799.371 54.8672 797.633 54.8672 794.871 54.8672 792.738 56.707 792.738 59.4609 792.738 66.0898 802.629 69.4531 809.672 69.4531 823.645 69.4531 826.191 62.7266 826.191 53.2422V27.9414C826.191 24.3711 827.41 23.1523 830.582 23.1523 831.496 23.1523 832.418 23.3555 833.332 23.5547V21.418" fill="#ffffff"/>
<path transform="matrix(.1,0,0,-.1,0,9.96)" d="M835.578 23.2539C839.855 23.2539 843.324 24.1641 843.324 30.7969V58.6445C843.324 64.7656 838.531 65.0742 835.578 65.2773V67.0078L851.281 69.4531V55.9922H851.492C852.914 59.7695 857.496 69.4531 867.598 69.4531 878.418 69.4531 879.438 63.5469 879.438 54.0547V30.7969C879.438 24.1641 882.906 23.2539 887.184 23.2539V21.5117H863.727V23.2539C868 23.2539 871.48 24.1641 871.48 30.7969V51.8125C871.48 60.5859 871.387 64.5625 864.637 64.5625 858.633 64.5625 851.281 53.043 851.281 43.3477V30.7969C851.281 24.1641 854.738 23.2539 859.035 23.2539V21.5117H835.578V23.2539" fill="#ffffff"/>
<path transform="matrix(.1,0,0,-.1,0,9.96)" d="M919.035 35.6211C919.035 27.25 919.957 25.9883 925.695 25.9883 945.414 25.9883 953.551 36.5391 953.551 59.5859 953.551 80.6875 947.48 93.4102 925.695 93.4102 919.957 93.4102 919.035 92.7188 919.035 83.7773V35.6211ZM898.855 23.8164C905.055 23.8164 908.84 24.6172 908.84 33.2148V86.1836C908.84 94.7891 905.055 95.5938 898.855 95.5938V97.8789H925.695C944.723 97.8789 964.902 93.7539 964.902 59.5859 964.902 25.5313 943.695 21.5117 925.695 21.5117H898.855V23.8164" fill="#ffffff"/>
<path transform="matrix(.1,0,0,-.1,0,9.96)" d="M974.695 84.6563C974.695 87.9258 977.242 90.4688 980.496 90.4688 983.766 90.4688 986.313 87.9258 986.313 84.6563 986.313 81.3906 983.766 78.8438 980.496 78.8438 977.242 78.8438 974.695 81.3906 974.695 84.6563ZM969.074 23.2539C973.367 23.2539 976.84 24.1641 976.84 30.7969V58.6445C976.84 64.7656 972.145 65.0742 969.074 65.2773V67.0078L984.793 69.4531V30.7969C984.793 24.1641 988.254 23.2539 992.539 23.2539V21.5117H969.074V23.2539" fill="#ffffff"/>
<path transform="matrix(.1,0,0,-.1,0,9.96)" d="M1021.71 53.6523C1021.71 59.0547 1019.87 66.0898 1012.03 66.0898 1004.27 66.0898 1001.11 57.4258 1001.11 53.6523H1021.71ZM1029.47 22.3398C1027.02 21.418 1023.55 20.5 1017.32 20.5 1001.51 20.5 992.645 29.1719 992.645 46.3047 992.645 61.2031 998.66 69.4531 1013.34 69.4531 1022.52 69.4531 1030.8 64.3555 1030.8 52.5273V50.2852H1001.11C1001.11 41.7188 1005.28 24.2734 1022.33 24.2734 1024.66 24.2734 1027.42 24.5781 1029.47 25.5977V22.3398" fill="#ffffff"/>
<path transform="matrix(.1,0,0,-.1,0,9.96)" d="M1055.16 40.1875C1063.73 40.1875 1064.86 46.9102 1064.86 52.3281 1064.86 59.9688 1062.21 66.0898 1054.86 66.0898 1046.79 66.0898 1045.27 60.1719 1045.27 54.2578 1045.27 46.5078 1047.82 40.1875 1055.16 40.1875ZM1046.3 22.4375C1044.25 20.9102 1041.4 19.1758 1041.4 14.5859 1041.4 8.56641 1046.79 3.36328 1055.67 3.36328 1064.96 3.36328 1073.53 8.15625 1073.53 15.4961 1073.53 20.7031 1069.25 22.4375 1064.14 22.4375H1046.3ZM1063.95 29.6758C1068.83 29.6758 1080.16 29.4688 1080.16 18.1523 1080.16 6.52344 1068.73 0 1055.16 0 1045.17 0 1034.77 3.77344 1034.77 12.9531 1034.77 19.2773 1039.46 22.0273 1042.73 23.668 1040.99 24.6797 1038.34 26.6172 1038.34 30.9023 1038.34 34.6797 1041.61 38.5508 1042.73 39.7813 1040.38 41.7188 1036.81 44.7734 1036.81 53.4453 1036.81 66.6016 1046.39 69.4531 1056.07 69.4531 1060.77 69.4531 1063.32 68.6445 1066.6 66.9141 1068.22 70.7813 1070.66 77.8242 1076.89 77.8242 1079.75 77.8242 1081.79 75.9883 1081.79 72.9336 1081.79 70.1719 1080.05 68.3359 1077 68.3359 1074.34 68.3359 1073.73 69.7695 1072.4 69.7695 1070.16 69.7695 1069.25 66.8008 1068.73 65.1797 1069.95 63.8555 1073.32 60.0781 1073.32 52.9336 1073.32 42.6367 1066.89 36.8164 1054.66 36.8164 1050.58 36.8164 1047.61 37.332 1045.38 38.3477 1044.76 37.5352 1043.54 36.0039 1043.54 33.7617 1043.54 29.6758 1048.64 29.6758 1051.91 29.6758H1063.95" fill="#ffffff"/>
<path transform="matrix(.1,0,0,-.1,0,9.96)" d="M1101.57 23.8672C1111.77 23.8672 1113.82 36.5078 1113.82 44.9766 1113.82 53.4453 1111.77 66.0898 1101.57 66.0898 1091.37 66.0898 1089.34 53.4453 1089.34 44.9766 1089.34 36.5078 1091.37 23.8672 1101.57 23.8672ZM1080.26 44.9766C1080.26 60.2813 1088.52 69.4531 1101.57 69.4531 1114.64 69.4531 1122.89 60.2813 1122.89 44.9766 1122.89 29.6758 1114.64 20.5 1101.57 20.5 1088.52 20.5 1080.26 29.6758 1080.26 44.9766" fill="#ffffff"/>
<path transform="matrix(.1,0,0,-.1,0,9.96)" d="M1029.56 3.93359H591.531V1.34375H1032.03C1031.1 2.13672 1030.27 3.00781 1029.56 3.93359" fill="#ffffff"/>
<path transform="matrix(.1,0,0,-.1,0,9.96)" d="M1122.07 3.93359H1081.79C1080.87 3 1079.86 2.14063 1078.75 1.34375H1122.07V3.93359" fill="#ffffff"/>
</g>
</svg>
