<?xml version="1.0" encoding="UTF-8" standalone="no"?>
<!-- Created with Inkscape (http://www.inkscape.org/) -->

<svg
   xmlns:dc="http://purl.org/dc/elements/1.1/"
   xmlns:cc="http://creativecommons.org/ns#"
   xmlns:rdf="http://www.w3.org/1999/02/22-rdf-syntax-ns#"
   xmlns:svg="http://www.w3.org/2000/svg"
   xmlns="http://www.w3.org/2000/svg"
   xmlns:xlink="http://www.w3.org/1999/xlink"
   xmlns:sodipodi="http://sodipodi.sourceforge.net/DTD/sodipodi-0.dtd"
   xmlns:inkscape="http://www.inkscape.org/namespaces/inkscape"
   width="426.8714"
   height="117.42541"
   id="svg2"
   version="1.1"
   inkscape:version="0.92.0 r"
   sodipodi:docname="not-fd.svg">
  <defs
     id="defs4">
    <linearGradient
       id="linearGradient3816">
      <stop
         style="stop-color:#274992;stop-opacity:1;"
         offset="0"
         id="stop3818" />
      <stop
         style="stop-color:#3b5998;stop-opacity:1;"
         offset="1"
         id="stop3820" />
    </linearGradient>
    <inkscape:perspective
       sodipodi:type="inkscape:persp3d"
       inkscape:vp_x="0 : 561.25983 : 1"
       inkscape:vp_y="0 : 1066.6667 : 0"
       inkscape:vp_z="793.70078 : 561.25983 : 1"
       inkscape:persp3d-origin="396.85039 : 374.17322 : 1"
       id="perspective10" />
    <inkscape:perspective
       id="perspective2884"
       inkscape:persp3d-origin="0.53333333 : 0.35555555 : 1"
       inkscape:vp_z="1.0666667 : 0.53333333 : 1"
       inkscape:vp_y="0 : 1066.6667 : 0"
       inkscape:vp_x="0 : 0.53333333 : 1"
       sodipodi:type="inkscape:persp3d" />
    <inkscape:perspective
       id="perspective2970"
       inkscape:persp3d-origin="141.86667 : 35.555555 : 1"
       inkscape:vp_z="283.73333 : 53.333333 : 1"
       inkscape:vp_y="0 : 1066.6667 : 0"
       inkscape:vp_x="0 : 53.333333 : 1"
       sodipodi:type="inkscape:persp3d" />
    <linearGradient
       inkscape:collect="always"
       xlink:href="#linearGradient3816"
       id="linearGradient3822"
       x1="-90.913727"
       y1="186.66145"
       x2="-90.913727"
       y2="169.48886"
       gradientUnits="userSpaceOnUse" />
    <linearGradient
       inkscape:collect="always"
       xlink:href="#linearGradient3816"
       id="linearGradient3834"
       gradientUnits="userSpaceOnUse"
       x1="-90.913727"
       y1="186.66145"
       x2="-90.913727"
       y2="169.48886"
       gradientTransform="translate(-8.0812204,142.43151)" />
    <mask
       maskUnits="userSpaceOnUse"
       id="mask3836">
      <rect
         style="fill:#687fb1;fill-opacity:1;fill-rule:nonzero;stroke:none"
         id="rect3838"
         width="61.114231"
         height="16.667517"
         x="-121.72337"
         y="171.50916"
         rx="3.3425415"
         ry="2.3913043" />
    </mask>
    <inkscape:perspective
       id="perspective3928"
       inkscape:persp3d-origin="141.86667 : 35.555555 : 1"
       inkscape:vp_z="283.73333 : 53.333333 : 1"
       inkscape:vp_y="0 : 1066.6667 : 0"
       inkscape:vp_x="0 : 53.333333 : 1"
       sodipodi:type="inkscape:persp3d" />
    <linearGradient
       inkscape:collect="always"
       xlink:href="#linearGradient3816"
       id="linearGradient3951"
       gradientUnits="userSpaceOnUse"
       gradientTransform="translate(-8.0812204,142.43151)"
       x1="-90.913727"
       y1="186.66145"
       x2="-90.913727"
       y2="169.48886" />
    <linearGradient
       inkscape:collect="always"
       xlink:href="#linearGradient3816"
       id="linearGradient2834"
       gradientUnits="userSpaceOnUse"
       gradientTransform="matrix(1.9062876,0,0,1.9062876,83.875545,-14.681553)"
       x1="-90.913727"
       y1="186.66145"
       x2="-90.913727"
       y2="169.48886" />
  </defs>
  <sodipodi:namedview
     id="base"
     pagecolor="#ffffff"
     bordercolor="#666666"
     borderopacity="1.0"
     inkscape:pageopacity="0.0"
     inkscape:pageshadow="2"
     inkscape:zoom="1.979899"
     inkscape:cx="136.41545"
     inkscape:cy="56.86437"
     inkscape:document-units="px"
     inkscape:current-layer="layer1"
     showgrid="false"
     inkscape:window-width="1890"
     inkscape:window-height="1030"
     inkscape:window-x="12"
     inkscape:window-y="32"
     inkscape:window-maximized="1"
     fit-margin-top="0"
     fit-margin-left="0"
     fit-margin-right="0"
     fit-margin-bottom="0" />
  <metadata
     id="metadata7">
    <rdf:RDF>
      <cc:Work
         rdf:about="">
        <dc:format>image/svg+xml</dc:format>
        <dc:type
           rdf:resource="http://purl.org/dc/dcmitype/StillImage" />
        <dc:title></dc:title>
      </cc:Work>
    </rdf:RDF>
  </metadata>
  <g
     inkscape:label="Layer 1"
     inkscape:groupmode="layer"
     id="layer1"
     transform="translate(148.14487,-226.59252)">
    <rect
       ry="9.5314379"
       rx="9.5314379"
       y="228.49881"
       x="-146.23859"
       height="113.61283"
       width="113.61283"
       id="rect3832"
       style="fill:url(#linearGradient2834);fill-opacity:1;fill-rule:nonzero;stroke:#0c0068;stroke-width:3.8125751;stroke-miterlimit:4;stroke-dasharray:none;stroke-opacity:1"
       inkscape:export-filename="/home/mattl/Desktop/no-facebook.png"
       inkscape:export-xdpi="90"
       inkscape:export-ydpi="90" />
    <path
       style="fill:#ffffff;stroke-width:1.06666672"
       d="m -66.897685,336.21725 h -19.658921 v -47.58632 h -9.824524 v -16.39762 h 9.824524 v -9.84536 c 0,-13.37772 5.54488,-21.33237 21.302741,-21.33237 h 13.119845 v 16.40092 h -8.200453 c -6.135251,0 -6.53907,2.29124 -6.53907,6.56871 l -0.02414,8.2081 h 14.855842 l -1.738191,16.39762 h -13.117654 z"
       id="path3004"
       inkscape:export-filename="/home/mattl/Desktop/no-facebook.png"
       inkscape:export-xdpi="90"
       inkscape:export-ydpi="90"
       inkscape:connector-curvature="0" />
    <g
       style="font-style:normal;font-variant:normal;font-weight:normal;font-stretch:condensed;font-size:35.36691284px;line-height:125%;font-family:'Futura BdCn BT';-inkscape-font-specification:'Futura BdCn BT Condensed';text-align:start;writing-mode:lr-tb;text-anchor:start;fill:#455984;fill-opacity:1;stroke:none"
       id="text3840">
      <path
         d="m -2.889615,259.63138 v -12.63631 l -6.2260504,-14.25728 h 5.655022 l 1.7683457,4.86295 c 0.3315586,0.87191 0.6324226,1.7438 0.90259306,2.61568 0.27015686,0.85963 0.52804035,1.73766 0.77365122,2.6341 0.22103543,-0.99468 0.46049866,-1.92184 0.71839041,-2.78146 0.25787521,-0.8596 0.52189871,-1.63324 0.79207151,-2.32095 l 1.9525483,-5.01032 h 5.2497761 l -6.2628908,14.25728 v 12.63631 H -2.889615"
         id="path3985"
         inkscape:connector-curvature="0"
         style="stroke-width:1.06666672" />
      <path
         d="m 13.854407,255.59734 c 0.884164,0 1.565714,-0.43594 2.04465,-1.30784 0.491196,-0.88417 0.736799,-2.13674 0.736811,-3.75773 -1.2e-5,-1.6087 -0.245615,-2.84899 -0.736811,-3.7209 -0.478936,-0.88415 -1.160486,-1.32624 -2.04465,-1.32625 -0.88418,1e-5 -1.56573,0.43596 -2.044649,1.30784 -0.478933,0.8719 -0.718397,2.11833 -0.718391,3.73931 -6e-6,1.63326 0.239458,2.88585 0.718391,3.75773 0.478919,0.8719 1.160469,1.30784 2.044649,1.30784 m 7.53389,-5.02873 c -1.6e-5,2.87357 -0.687706,5.15767 -2.06307,6.85234 -1.363113,1.69467 -3.186717,2.54199 -5.47082,2.54199 -2.2964,0 -4.1261439,-0.84119 -5.4892393,-2.52357 -1.3508211,-1.69467 -2.0262303,-3.98492 -2.0262295,-6.87076 -8e-7,-2.86127 0.6754084,-5.1331 2.0262295,-6.8155 1.3630954,-1.68237 3.1928393,-2.52356 5.4892393,-2.52357 2.296383,1e-5 4.126127,0.84735 5.48924,2.54199 1.363085,1.6824 2.044634,3.94809 2.04465,6.79708"
         id="path3987"
         inkscape:connector-curvature="0"
         style="stroke-width:1.06666672" />
      <path
         d="m 37.137625,241.5611 v 9.35749 c -1.5e-5,3.61038 -0.478942,6.02344 -1.436781,7.23917 -0.945586,1.20346 -2.66481,1.80518 -5.157675,1.80518 -2.505163,0 -4.242805,-0.60172 -5.212935,-1.80518 -0.957856,-1.20346 -1.436783,-3.61651 -1.436781,-7.23917 v -9.35749 h 4.86295 v 11.62319 c -6e-6,0.94558 0.128936,1.58415 0.386826,1.9157 0.257876,0.33157 0.712242,0.49735 1.3631,0.49735 0.65084,0 1.105206,-0.17192 1.363099,-0.51576 0.270154,-0.34384 0.405235,-0.97628 0.405246,-1.89729 V 241.5611 h 4.862951"
         id="path3989"
         inkscape:connector-curvature="0"
         style="stroke-width:1.06666672" />
      <path
         d="m 60.034015,241.5611 1.473621,7.75493 c 0.08594,0.52806 0.184189,1.25259 0.294725,2.17359 0.110507,0.92103 0.227169,1.97098 0.349985,3.14987 0.135067,-1.10521 0.264008,-2.14288 0.386825,-3.11303 0.135067,-0.98241 0.245588,-1.73763 0.331565,-2.26569 l 1.39994,-7.69967 h 4.82611 l -4.752429,18.07028 h -4.310342 l -1.307839,-7.49704 c -0.06141,-0.31929 -0.153514,-1.01311 -0.276304,-2.0815 -0.110532,-1.06836 -0.233334,-2.38848 -0.368405,-3.96036 l -0.09211,0.88418 c -0.294735,3.13145 -0.466657,4.85068 -0.515767,5.15768 l -1.32626,7.49704 H 51.855411 L 47.102982,241.5611 h 4.82611 l 1.3631,7.69967 c 0.03683,0.23333 0.190337,1.36311 0.460507,3.38933 l 0.257883,1.98939 c 0.08595,-1.03153 0.184197,-2.00167 0.294725,-2.9104 0.122794,-0.921 0.251736,-1.71922 0.386825,-2.39464 l 1.418361,-7.77335 h 3.923517"
         id="path3991"
         inkscape:connector-curvature="0"
         style="stroke-width:1.06666672" />
      <path
         d="m 77.441171,255.59734 c 0.884163,0 1.565712,-0.43594 2.04465,-1.30784 0.491196,-0.88417 0.736799,-2.13674 0.73681,-3.75773 -1.1e-5,-1.6087 -0.245614,-2.84899 -0.73681,-3.7209 -0.478938,-0.88415 -1.160487,-1.32624 -2.04465,-1.32625 -0.88418,1e-5 -1.56573,0.43596 -2.044649,1.30784 -0.478934,0.8719 -0.718397,2.11833 -0.718391,3.73931 -6e-6,1.63326 0.239457,2.88585 0.718391,3.75773 0.478919,0.8719 1.160469,1.30784 2.044649,1.30784 m 7.533889,-5.02873 c -1.6e-5,2.87357 -0.687705,5.15767 -2.06307,6.85234 -1.363112,1.69467 -3.186716,2.54199 -5.470819,2.54199 -2.2964,0 -4.126144,-0.84119 -5.48924,-2.52357 -1.350821,-1.69467 -2.02623,-3.98492 -2.02623,-6.87076 0,-2.86127 0.675409,-5.1331 2.02623,-6.8155 1.363096,-1.68237 3.19284,-2.52356 5.48924,-2.52357 2.296382,1e-5 4.126127,0.84735 5.48924,2.54199 1.363083,1.6824 2.044633,3.94809 2.044649,6.79708"
         id="path3993"
         inkscape:connector-curvature="0"
         style="stroke-width:1.06666672" />
      <path
         d="m 95.971959,259.63138 v -10.94164 c -1e-5,-1.03152 -0.122811,-1.73763 -0.368405,-2.11833 -0.245614,-0.39296 -0.663139,-0.58944 -1.252578,-0.58945 -0.638577,1e-5 -1.099084,0.2272 -1.38152,0.68155 -0.282451,0.45438 -0.423674,1.20348 -0.423666,2.24727 v 10.7206 H 87.553898 V 241.5611 h 4.641907 v 2.79988 c 0.650841,-1.00696 1.381511,-1.75605 2.192012,-2.24727 0.822762,-0.49119 1.749914,-0.73679 2.78146,-0.73681 1.412207,2e-5 2.394621,0.39912 2.947243,1.19731 0.55259,0.79823 0.8289,2.37009 0.82891,4.71559 v 12.34158 h -4.973471"
         id="path3995"
         inkscape:connector-curvature="0"
         style="stroke-width:1.06666672" />
      <path
         d="m 104.24266,233.17987 h 3.02092 v 10.2601 h -3.02092 v -10.2601"
         id="path3997"
         inkscape:connector-curvature="0"
         style="stroke-width:1.06666672" />
      <path
         d="m 111.1871,259.63138 v -14.1836 h -1.97097 v -3.88668 h 1.97097 v -5.21294 h 4.97348 v 5.21294 h 1.97096 v 3.88668 h -1.97096 v 14.1836 h -4.97348"
         id="path3999"
         inkscape:connector-curvature="0"
         style="stroke-width:1.06666672" />
      <path
         d="m 136.33076,230.93261 v 4.23666 c -0.0737,2e-5 -0.1535,2e-5 -0.23945,0 -0.086,-0.0123 -0.19649,-0.0185 -0.33158,-0.0185 -0.62629,2e-5 -1.05609,0.17194 -1.28942,0.51576 -0.22104,0.34387 -0.33156,1.28944 -0.33156,2.83673 v 3.05776 h 2.19201 v 3.81299 h -2.19201 v 14.25729 h -4.97347 v -14.25729 h -1.80518 v -3.81299 h 1.80518 v -4.78927 c 0,-1.21571 0.0737,-2.11831 0.22105,-2.70778 0.14736,-0.60171 0.3991,-1.13589 0.75523,-1.60257 0.45435,-0.56485 1.03767,-0.99467 1.74992,-1.28942 0.72453,-0.29469 1.56571,-0.44206 2.52358,-0.44208 0.23331,2e-5 0.50348,0.0185 0.81049,0.0553 0.31927,0.0246 0.68768,0.0737 1.10521,0.14737"
         id="path4001"
         inkscape:connector-curvature="0"
         style="stroke-width:1.06666672" />
      <path
         d="m 138.28331,236.73499 c 0,-0.82276 0.27016,-1.51044 0.81049,-2.06308 0.55261,-0.56486 1.24029,-0.8473 2.06307,-0.84732 0.78592,2e-5 1.45519,0.28246 2.00781,0.84732 0.56488,0.56492 0.84732,1.25261 0.84733,2.06308 -1e-5,0.78595 -0.27631,1.45522 -0.82891,2.0078 -0.55261,0.54036 -1.22803,0.81052 -2.02623,0.8105 -0.82278,2e-5 -1.51046,-0.264 -2.06307,-0.79207 -0.54033,-0.54031 -0.81049,-1.21572 -0.81049,-2.02623 m 0.3684,22.89639 V 241.5611 h 4.9919 v 18.07028 h -4.9919"
         id="path4003"
         inkscape:connector-curvature="0"
         style="stroke-width:1.06666672" />
      <path
         d="m 155.80099,259.63138 v -10.94164 c -1e-5,-1.03152 -0.12281,-1.73763 -0.3684,-2.11833 -0.24562,-0.39296 -0.66315,-0.58944 -1.25259,-0.58945 -0.63857,1e-5 -1.09908,0.2272 -1.38151,0.68155 -0.28246,0.45438 -0.42367,1.20348 -0.42367,2.24727 v 10.7206 h -4.9919 V 241.5611 h 4.64191 v 2.79988 c 0.65085,-1.00696 1.38152,-1.75605 2.19201,-2.24727 0.82277,-0.49119 1.74992,-0.73679 2.78146,-0.73681 1.41222,2e-5 2.39463,0.39912 2.94725,1.19731 0.55259,0.79823 0.82889,2.37009 0.82891,4.71559 v 12.34158 h -4.97347"
         id="path4005"
         inkscape:connector-curvature="0"
         style="stroke-width:1.06666672" />
      <path
         d="m 172.85815,250.31072 c -1e-5,-1.73149 -0.17806,-2.97793 -0.53418,-3.73931 -0.34385,-0.77364 -0.90875,-1.16047 -1.69467,-1.16048 -0.72453,1e-5 -1.25259,0.38684 -1.58414,1.16048 -0.31929,0.77367 -0.47893,2.03238 -0.47893,3.77615 0,1.73152 0.17806,3.02707 0.53419,3.88668 0.3684,0.85962 0.92101,1.28943 1.65782,1.28942 0.74909,1e-5 1.28327,-0.39296 1.60257,-1.17889 0.33155,-0.79821 0.49733,-2.14289 0.49734,-4.03405 m 4.82612,9.32066 h -4.82612 v -2.6341 c -0.47893,1.00698 -1.0561,1.76221 -1.7315,2.2657 -0.66314,0.49121 -1.43065,0.73681 -2.30253,0.73681 -1.65783,0 -2.94111,-0.8105 -3.84984,-2.43148 -0.90873,-1.63326 -1.3631,-3.94808 -1.3631,-6.94444 0,-2.95951 0.46664,-5.23748 1.39995,-6.83392 0.93329,-1.60868 2.2534,-2.41303 3.96035,-2.41305 0.77364,2e-5 1.47975,0.2272 2.11833,0.68154 0.65084,0.45439 1.24029,1.14208 1.76834,2.06307 v -13.04154 h 4.82612 v 28.55141"
         id="path4007"
         inkscape:connector-curvature="0"
         style="stroke-width:1.06666672" />
      <path
         d="M 189.7127,259.63138 V 241.5611 h 4.60507 v 2.79988 c 0.62628,-1.00696 1.3324,-1.75605 2.11833,-2.24727 0.78593,-0.49119 1.66395,-0.73679 2.6341,-0.73681 0.9824,2e-5 1.78062,0.25176 2.39463,0.75523 0.614,0.5035 1.02538,1.24645 1.23416,2.22885 0.69995,-1.01924 1.43676,-1.76833 2.21043,-2.24727 0.77363,-0.49119 1.60869,-0.73679 2.50516,-0.73681 1.31395,2e-5 2.22883,0.45437 2.74462,1.3631 0.52802,0.90875 0.79204,2.78147 0.79207,5.61818 v 11.2732 h -4.89979 v -10.94164 c -2e-5,-1.01924 -0.11054,-1.72536 -0.33157,-2.11833 -0.22105,-0.39296 -0.60174,-0.58944 -1.14205,-0.58945 -0.65086,1e-5 -1.11752,0.21491 -1.39994,0.64471 -0.27019,0.42982 -0.40526,1.19119 -0.40525,2.28411 v 10.7206 h -4.86295 v -10.94164 c -1e-5,-0.99468 -0.11667,-1.70079 -0.34999,-2.11833 -0.22104,-0.41751 -0.59559,-0.62628 -1.12363,-0.62629 -0.66314,1e-5 -1.14206,0.2272 -1.43678,0.68155 -0.28246,0.45439 -0.42367,1.21575 -0.42367,2.28411 v 10.7206 h -4.86295"
         id="path4009"
         inkscape:connector-curvature="0"
         style="stroke-width:1.06666672" />
      <path
         d="m 223.71651,249.05814 c -0.0368,-1.31396 -0.27631,-2.28409 -0.71839,-2.9104 -0.42981,-0.63855 -1.08066,-0.95783 -1.95254,-0.95785 -0.85963,2e-5 -1.51662,0.33158 -1.97098,0.9947 -0.45437,0.66313 -0.68155,1.62713 -0.68154,2.89198 l 5.32345,-0.0185 m -5.32345,2.87357 v 0.14736 c -1e-5,1.35083 0.23945,2.3885 0.71839,3.11302 0.47892,0.72454 1.16046,1.0868 2.04465,1.0868 0.56487,0 1.0438,-0.17192 1.43677,-0.51577 0.40524,-0.34384 0.73066,-0.86575 0.97628,-1.56572 h 4.29193 c -0.39298,1.80519 -1.20962,3.2174 -2.4499,4.23666 -1.22803,1.01926 -2.7385,1.52888 -4.53139,1.52888 -2.24728,0 -4.03404,-0.84119 -5.3603,-2.52357 -1.32625,-1.68238 -1.98939,-3.95422 -1.98939,-6.8155 0,-2.89811 0.66314,-5.18836 1.98939,-6.87076 1.32626,-1.68237 3.11302,-2.52357 5.3603,-2.52358 2.38234,1e-5 4.18139,0.82893 5.39714,2.48673 1.21572,1.65785 1.82359,4.10774 1.8236,7.34969 v 0.86576 h -9.70747"
         id="path4011"
         inkscape:connector-curvature="0"
         style="stroke-width:1.06666672" />
      <path
         d="m 245.50768,255.59734 c 0.88417,0 1.56572,-0.43594 2.04465,-1.30784 0.4912,-0.88417 0.7368,-2.13674 0.73681,-3.75773 -1e-5,-1.6087 -0.24561,-2.84899 -0.73681,-3.7209 -0.47893,-0.88415 -1.16048,-1.32624 -2.04465,-1.32625 -0.88418,1e-5 -1.56573,0.43596 -2.04465,1.30784 -0.47893,0.8719 -0.71839,2.11833 -0.71839,3.73931 0,1.63326 0.23946,2.88585 0.71839,3.75773 0.47892,0.8719 1.16047,1.30784 2.04465,1.30784 m 7.53389,-5.02873 c -1e-5,2.87357 -0.6877,5.15767 -2.06306,6.85234 -1.36312,1.69467 -3.18672,2.54199 -5.47083,2.54199 -2.29639,0 -4.12614,-0.84119 -5.48924,-2.52357 -1.35081,-1.69467 -2.02623,-3.98492 -2.02623,-6.87076 0,-2.86127 0.67542,-5.1331 2.02623,-6.8155 1.3631,-1.68237 3.19285,-2.52356 5.48924,-2.52357 2.29638,1e-5 4.12613,0.84735 5.48924,2.54199 1.36309,1.6824 2.04464,3.94809 2.04465,6.79708"
         id="path4013"
         inkscape:connector-curvature="0"
         style="stroke-width:1.06666672" />
      <path
         d="m 264.03847,259.63138 v -10.94164 c -1e-5,-1.03152 -0.12281,-1.73763 -0.3684,-2.11833 -0.24562,-0.39296 -0.66315,-0.58944 -1.25259,-0.58945 -0.63857,1e-5 -1.09908,0.2272 -1.38151,0.68155 -0.28246,0.45438 -0.42367,1.20348 -0.42367,2.24727 v 10.7206 h -4.99189 V 241.5611 h 4.6419 v 2.79988 c 0.65085,-1.00696 1.38152,-1.75605 2.19202,-2.24727 0.82276,-0.49119 1.74992,-0.73679 2.78146,-0.73681 1.41221,2e-5 2.39462,0.39912 2.94724,1.19731 0.5526,0.79823 0.8289,2.37009 0.82892,4.71559 v 12.34158 h -4.97348"
         id="path4015"
         inkscape:connector-curvature="0"
         style="stroke-width:1.06666672" />
    </g>
    <g
       style="font-style:normal;font-variant:normal;font-weight:normal;font-stretch:condensed;font-size:81.99658203px;line-height:125%;font-family:'Futura BdCn BT';-inkscape-font-specification:'Futura BdCn BT Condensed';text-align:start;writing-mode:lr-tb;text-anchor:start;fill:#455984;fill-opacity:1;stroke:none"
       id="text3961">
      <path
         d="M -9.1156659,335.31093 V 272.95937 H 17.789462 v 11.53077 H 2.9275821 v 12.94009 H 16.508266 v 11.48805 H 2.9275821 v 26.39265 h -12.043248"
         id="path4018"
         inkscape:connector-curvature="0"
         style="stroke-width:1.06666672" />
      <path
         d="m 42.98633,313.70142 c -2.5e-5,-3.81509 -0.455561,-6.64796 -1.366609,-8.4986 -0.882626,-1.85059 -2.263469,-2.7759 -4.142536,-2.77593 -1.679809,3e-5 -2.904062,0.89688 -3.672764,2.69052 -0.740261,1.76522 -1.110385,4.65504 -1.110371,8.66943 -1.4e-5,3.98596 0.412816,6.97541 1.238491,8.96837 0.854115,1.96451 2.13531,2.94676 3.843589,2.94675 1.822126,1e-5 3.146028,-0.95377 3.97171,-2.86134 0.825636,-1.90754 1.238465,-4.95394 1.23849,-9.1392 m 10.847464,21.60951 H 42.98633 v -6.19244 c -1.224278,2.30615 -2.633593,4.04289 -4.227949,5.21019 -1.565926,1.16732 -3.302657,1.75098 -5.2102,1.75098 -3.985955,0 -7.046588,-1.85063 -9.181908,-5.55185 -2.106861,-3.70123 -3.160288,-9.06801 -3.160285,-16.10038 -3e-6,-6.83302 1.081896,-12.11438 3.245697,-15.84412 2.192263,-3.72968 5.252895,-5.59452 9.18191,-5.59456 1.8506,4e-5 3.53039,0.55522 5.039374,1.66555 1.537413,1.1104 2.9752,2.8329 4.313361,5.16749 v -6.40598 h 10.847464 v 41.89512"
         id="path4020"
         inkscape:connector-curvature="0"
         style="stroke-width:1.06666672" />
      <path
         d="m 84.454393,305.33093 c -0.911098,-0.68327 -1.7937,-1.18151 -2.647806,-1.49473 -0.854154,-0.31314 -1.708284,-0.46974 -2.562394,-0.46977 -2.220759,3e-5 -3.985962,0.96806 -5.295612,2.90406 -1.309682,1.90758 -1.964515,4.49844 -1.964501,7.77258 -1.4e-5,3.44502 0.654819,6.10705 1.964501,7.98612 1.338122,1.85064 3.217208,2.77594 5.637265,2.77594 0.911051,0 1.765181,-0.17082 2.562393,-0.51248 0.797165,-0.37011 1.565882,-0.9253 2.306154,-1.66556 v 11.0183 c -1.195808,0.82565 -2.462768,1.43778 -3.800884,1.83637 -1.309688,0.3986 -2.690532,0.5979 -4.142535,0.5979 -4.897032,0 -8.79756,-1.95027 -11.701596,-5.85081 -2.875577,-3.90052 -4.313363,-9.21035 -4.313361,-15.92953 -2e-6,-6.63373 1.452019,-11.90087 4.356068,-15.80143 2.904037,-3.90049 6.790329,-5.85075 11.658889,-5.8508 1.395061,5e-5 2.747435,0.1424 4.057123,0.42706 1.309644,0.25629 2.605074,0.65488 3.886296,1.19579 v 11.06099"
         id="path4022"
         inkscape:connector-curvature="0"
         style="stroke-width:1.06666672" />
      <path
         d="m 111.70118,310.79738 c -0.0854,-3.04637 -0.64063,-5.29559 -1.66555,-6.74764 -0.99652,-1.48046 -2.50548,-2.22071 -4.5269,-2.22074 -1.99299,3e-5 -3.51619,0.76875 -4.5696,2.30616 -1.053445,1.53746 -1.580158,3.77243 -1.580144,6.70493 l 12.342194,-0.0427 m -12.342194,6.66222 v 0.34165 c -1.4e-5,3.13183 0.555171,5.53763 1.665554,7.21741 1.11035,1.6798 2.6905,2.5197 4.74043,2.51969 1.30964,10e-6 2.42001,-0.39859 3.3311,-1.19579 0.93952,-0.79717 1.69401,-2.0072 2.26346,-3.63006 h 9.95062 c -0.9111,4.18526 -2.80442,7.45943 -5.67996,9.82251 -2.84714,2.3631 -6.34907,3.54465 -10.50582,3.54465 -5.210213,0 -9.352745,-1.95027 -12.427607,-5.8508 -3.074875,-3.90053 -4.61231,-9.16766 -4.612308,-15.80142 -2e-6,-6.71914 1.537433,-12.02898 4.612308,-15.92955 3.074862,-3.90049 7.217394,-5.85075 12.427607,-5.85079 5.52335,4e-5 9.69436,1.92183 12.51302,5.76538 2.8186,3.84362 4.22791,9.52359 4.22794,17.03992 v 2.0072 H 99.358986"
         id="path4024"
         inkscape:connector-curvature="0"
         style="stroke-width:1.06666672" />
      <path
         d="m 144.11545,302.34148 c -1.82217,3e-5 -3.1603,0.91111 -4.01442,2.73322 -0.82567,1.79371 -1.2385,4.66927 -1.23849,8.62672 -1e-5,4.29915 0.39858,7.38825 1.19579,9.26733 0.79717,1.87909 2.0926,2.81863 3.88629,2.81863 1.70824,0 2.96097,-0.98225 3.75819,-2.94676 0.82563,-1.99295 1.23846,-5.09629 1.23848,-9.31003 -2e-5,-3.92897 -0.38438,-6.77607 -1.15308,-8.54131 -0.76874,-1.76516 -1.99299,-2.64777 -3.67276,-2.6478 m -16.27119,32.96945 v -66.19515 h 11.1037 v 30.23624 c 1.2527,-2.13529 2.61931,-3.72966 4.09983,-4.78313 1.50894,-1.05339 3.17449,-1.5801 4.99666,-1.58014 4.04286,4e-5 7.1035,1.89336 9.18191,5.67996 2.10682,3.78668 3.16025,9.32429 3.16029,16.61286 -4e-5,6.54835 -1.08194,11.67313 -3.2457,15.37436 -2.13536,3.67275 -5.06787,5.50914 -8.79755,5.50914 -2.04994,0 -3.87208,-0.58366 -5.46644,-1.75097 -1.56592,-1.19579 -2.87559,-2.93251 -3.929,-5.2102 v 6.10703 h -11.1037"
         id="path4026"
         inkscape:connector-curvature="0"
         style="stroke-width:1.06666672" />
      <path
         d="m 182.55134,325.9582 c 2.0499,1e-5 3.63004,-1.01071 4.74043,-3.03216 1.13881,-2.0499 1.70823,-4.95394 1.70826,-8.71214 -3e-5,-3.72968 -0.56945,-6.60525 -1.70826,-8.62672 -1.11039,-2.04989 -2.69053,-3.07484 -4.74043,-3.07487 -2.04993,3e-5 -3.63007,1.01075 -4.74043,3.03216 -1.11038,2.02147 -1.66557,4.91127 -1.66556,8.66943 -1e-5,3.78667 0.55518,6.69071 1.66556,8.71214 1.11036,2.02145 2.6905,3.03217 4.74043,3.03216 m 17.46697,-11.65888 c -3e-5,6.66223 -1.59441,11.95783 -4.78312,15.88683 -3.16032,3.92901 -7.38827,5.89351 -12.68385,5.89351 -5.3241,0 -9.56627,-1.95027 -12.72655,-5.85081 -3.13182,-3.92899 -4.69773,-9.23883 -4.69773,-15.92953 0,-6.63373 1.56591,-11.90087 4.69773,-15.80143 3.16028,-3.90049 7.40245,-5.85075 12.72655,-5.8508 5.32406,5e-5 9.56624,1.96455 12.72655,5.89351 3.16025,3.90056 4.74039,9.15346 4.74042,15.75872"
         id="path4028"
         inkscape:connector-curvature="0"
         style="stroke-width:1.06666672" />
      <path
         d="m 221.3289,325.9582 c 2.04988,1e-5 3.63003,-1.01071 4.74042,-3.03216 1.13882,-2.0499 1.70824,-4.95394 1.70827,-8.71214 -3e-5,-3.72968 -0.56945,-6.60525 -1.70827,-8.62672 -1.11039,-2.04989 -2.69054,-3.07484 -4.74042,-3.07487 -2.04993,3e-5 -3.63007,1.01075 -4.74043,3.03216 -1.11039,2.02147 -1.66557,4.91127 -1.66556,8.66943 -1e-5,3.78667 0.55517,6.69071 1.66556,8.71214 1.11036,2.02145 2.6905,3.03217 4.74043,3.03216 m 17.46697,-11.65888 c -3e-5,6.66223 -1.59441,11.95783 -4.78313,15.88683 -3.16031,3.92901 -7.38826,5.89351 -12.68384,5.89351 -5.3241,0 -9.56629,-1.95027 -12.72655,-5.85081 -3.13182,-3.92899 -4.69773,-9.23883 -4.69773,-15.92953 0,-6.63373 1.56591,-11.90087 4.69773,-15.80143 3.16026,-3.90049 7.40245,-5.85075 12.72655,-5.8508 5.32405,5e-5 9.56624,1.96455 12.72655,5.89351 3.16025,3.90056 4.74039,9.15346 4.74042,15.75872"
         id="path4030"
         inkscape:connector-curvature="0"
         style="stroke-width:1.06666672" />
      <path
         d="m 256.5191,310.62655 c 0.2847,-0.76869 0.92529,-2.19225 1.9218,-4.27066 0.22774,-0.45551 0.39857,-0.79716 0.51248,-1.02496 l 5.93621,-11.91512 h 13.02549 l -10.4631,17.42428 11.27453,24.47084 h -12.85467 l -9.35274,-22.848 v 22.848 h -11.57348 v -66.19515 h 11.57348 v 41.51077"
         id="path4032"
         inkscape:connector-curvature="0"
         style="stroke-width:1.06666672" />
    </g>
    <g
       style="font-style:normal;font-variant:normal;font-weight:normal;font-stretch:condensed;font-size:35.36691284px;line-height:125%;font-family:'Futura BdCn BT';-inkscape-font-specification:'Futura BdCn BT Condensed';text-align:start;writing-mode:lr-tb;text-anchor:start;fill:#ffffff;fill-opacity:1;stroke:none"
       id="text2836">
      <path
         d="m -126.68148,265.5576 v -10.94164 c -1e-5,-1.03152 -0.12281,-1.73763 -0.36841,-2.11833 -0.24561,-0.39295 -0.66313,-0.58944 -1.25257,-0.58945 -0.63859,1e-5 -1.09909,0.2272 -1.38152,0.68155 -0.28245,0.45438 -0.42368,1.20348 -0.42367,2.24727 v 10.7206 h -4.99189 v -18.07028 h 4.64191 v 2.79988 c 0.65084,-1.00695 1.38151,-1.75605 2.19201,-2.24727 0.82276,-0.49119 1.74991,-0.73679 2.78146,-0.73682 1.4122,3e-5 2.39461,0.39913 2.94724,1.19733 0.55259,0.79823 0.8289,2.37008 0.82891,4.71558 v 12.34158 h -4.97347"
         id="path4040"
         inkscape:connector-curvature="0"
         style="stroke-width:1.06666672" />
      <path
         d="m -111.61371,261.52356 c 0.88417,0 1.56572,-0.43594 2.04465,-1.30784 0.4912,-0.88417 0.7368,-2.13674 0.73681,-3.75774 -1e-5,-1.60868 -0.24561,-2.84898 -0.73681,-3.72088 -0.47893,-0.88416 -1.16048,-1.32625 -2.04465,-1.32626 -0.88417,1e-5 -1.56572,0.43595 -2.04464,1.30784 -0.47893,0.8719 -0.7184,2.11833 -0.7184,3.7393 0,1.63328 0.23947,2.88586 0.7184,3.75774 0.47892,0.8719 1.16047,1.30784 2.04464,1.30784 m 7.5339,-5.02873 c -2e-5,2.87356 -0.68771,5.15768 -2.06307,6.85234 -1.36311,1.69466 -3.18672,2.54199 -5.47083,2.54199 -2.29639,0 -4.12614,-0.84118 -5.48923,-2.52357 -1.35082,-1.69466 -2.02623,-3.98491 -2.02623,-6.87076 0,-2.86127 0.67541,-5.1331 2.02623,-6.8155 1.36309,-1.68237 3.19284,-2.52355 5.48923,-2.52358 2.29639,3e-5 4.12614,0.84735 5.48925,2.542 1.36308,1.6824 2.04463,3.9481 2.04465,6.79708"
         id="path4042"
         inkscape:connector-curvature="0"
         style="stroke-width:1.06666672" />
      <path
         d="m -100.92995,265.5576 v -14.18361 h -1.97096 v -3.88667 h 1.97096 v -5.21294 h 4.973476 v 5.21294 h 1.970969 v 3.88667 h -1.970969 v 14.18361 h -4.973476"
         id="path4044"
         inkscape:connector-curvature="0"
         style="stroke-width:1.06666672" />
    </g>
    <g
       style="font-style:normal;font-variant:normal;font-weight:normal;font-stretch:condensed;font-size:35.36691284px;line-height:125%;font-family:'Futura BdCn BT';-inkscape-font-specification:'Futura BdCn BT Condensed';text-align:start;writing-mode:lr-tb;text-anchor:start;fill:#ffffff;fill-opacity:1;stroke:none"
       id="text2840">
      <path
         d="m -60.61707,309.50611 h 3.020924 v 10.26009 h -3.020924 v -10.26009"
         id="path4035"
         inkscape:connector-curvature="0"
         style="stroke-width:1.06666672" />
      <path
         d="m -45.641392,326.63696 c -1.1e-5,-1.73149 -0.178073,-2.97793 -0.534188,-3.73932 -0.343855,-0.77363 -0.908742,-1.16046 -1.694664,-1.16047 -0.724539,1e-5 -1.252586,0.38684 -1.584143,1.16047 -0.319291,0.77367 -0.478934,2.03239 -0.478927,3.77616 -7e-6,1.73151 0.178056,3.02707 0.534188,3.88668 0.368397,0.85962 0.921005,1.28942 1.657824,1.28942 0.749081,0 1.283269,-0.39296 1.602563,-1.1789 0.331554,-0.7982 0.497336,-2.14288 0.497347,-4.03404 m 4.82611,9.32066 h -4.82611 v -2.6341 c -0.478937,1.00698 -1.056105,1.76221 -1.731505,2.2657 -0.663138,0.4912 -1.430649,0.73681 -2.302533,0.73681 -1.65783,0 -2.941107,-0.8105 -3.849836,-2.43148 -0.908735,-1.63326 -1.363101,-3.94808 -1.3631,-6.94445 -1e-6,-2.95951 0.466644,-5.23747 1.39994,-6.83391 0.93329,-1.60869 2.253408,-2.41304 3.960358,-2.41305 0.773643,10e-6 1.479753,0.2272 2.11833,0.68154 0.65084,0.45438 1.240288,1.14207 1.768346,2.06307 v -13.04154 h 4.82611 v 28.55141"
         id="path4037"
         inkscape:connector-curvature="0"
         style="stroke-width:1.06666672" />
    </g>
  </g>
</svg>
